<svg viewBox="0 0 12 12" xmlns="http://www.w3.org/2000/svg">
  <path fill-rule="evenodd" clip-rule="evenodd" d="M10.025 2.83929C10.0252 2.83933 10.0243 2.84157 10.0219 2.84589C10.0237 2.8414 10.0249 2.83925 10.025 2.83929ZM9.87925 3C9.77926 2.91509 9.61472 2.80079 9.34821 2.66753C8.59466 2.29076 7.41369 2 6 2C4.58631 2 3.40534 2.29076 2.65179 2.66753C2.38528 2.80079 2.22073 2.91509 2.12074 3C2.22073 3.08491 2.38528 3.19921 2.65179 3.33247C3.40534 3.70924 4.58631 4 6 4C7.41369 4 8.59466 3.70924 9.34821 3.33247C9.61472 3.19921 9.77926 3.08491 9.87925 3ZM1.97495 2.83929C1.9751 2.83925 1.97631 2.84141 1.97813 2.84592C1.97571 2.84158 1.9748 2.83933 1.97495 2.83929ZM1.97495 3.16071C1.9748 3.16067 1.97571 3.15842 1.97813 3.15408C1.97631 3.15859 1.9751 3.16075 1.97495 3.16071ZM10.0219 3.15411C10.0243 3.15843 10.0252 3.16067 10.025 3.16071C10.0249 3.16075 10.0237 3.15859 10.0219 3.15411ZM6 6C9.31371 6 12 4.65685 12 3C12 1.34315 9.31371 0 6 0C2.68629 0 0 1.34315 0 3C0 4.65685 2.68629 6 6 6Z" />
  <path d="M12 9C12 10.6569 9.31371 12 6 12C2.68629 12 0 10.6569 0 9C0 7.34315 2.68629 6 6 6C9.31371 6 12 7.34315 12 9Z" />
  <path d="M0 3L6 5L12 3V9H0V3Z" />
</svg>
