<svg width="40" height="40" viewBox="0 0 40 40" fill="none" xmlns="http://www.w3.org/2000/svg">
<path d="M20.375 36.875C29.6875 36.625 37.125 28.875 36.875 19.5625C36.6875 10.25 28.9375 2.87499 19.625 3.06249C10.3125 3.31249 2.87502 11.0625 3.12502 20.375C3.31252 29.6875 11.0625 37.0625 20.375 36.875Z" fill="#008C95"/>
<path d="M4.5 31.6875C4.8797 31.6875 5.1875 31.3797 5.1875 31C5.1875 30.6203 4.8797 30.3125 4.5 30.3125C4.1203 30.3125 3.8125 30.6203 3.8125 31C3.8125 31.3797 4.1203 31.6875 4.5 31.6875Z" fill="#4B4F54"/>
<path d="M6.9375 35.1875C7.59334 35.1875 8.125 34.6558 8.125 34C8.125 33.3442 7.59334 32.8125 6.9375 32.8125C6.28166 32.8125 5.75 33.3442 5.75 34C5.75 34.6558 6.28166 35.1875 6.9375 35.1875Z" fill="#4B4F54"/>
<path d="M10.75 38.5C11.6475 38.5 12.375 37.7725 12.375 36.875C12.375 35.9775 11.6475 35.25 10.75 35.25C9.85254 35.25 9.125 35.9775 9.125 36.875C9.125 37.7725 9.85254 38.5 10.75 38.5Z" fill="#4B4F54"/>
<path d="M0.312466 19.0625C0.124966 22.6875 0.937465 26.0625 2.49997 29.0625C2.62497 29.375 2.99997 29.4375 3.31247 29.3125C3.62497 29.125 3.74997 28.75 3.62497 28.4375C2.18747 25.6875 1.37497 22.5 1.56247 19.125C1.99997 9.37498 10.1875 1.56248 20 1.56248C30.125 1.56248 38.4375 9.74998 38.5 19.9375C38.5625 30.125 30.3125 38.4375 20.125 38.5C18.125 38.5 16.25 38.1875 14.4375 37.625C14.0625 37.5 13.6875 37.75 13.625 38.125C13.5625 38.4375 13.75 38.75 14.0625 38.8125C16.5625 39.625 19.3125 39.9375 22.1875 39.625C31.5 38.625 38.9375 31 39.6875 21.625C40.625 9.68748 30.875 -0.250022 19 0.374978C8.93746 0.874978 0.812466 8.99998 0.312466 19.0625Z" fill="#4B4F54"/>
<path d="M27.875 11.25L27.6875 11.125C25.75 9.43747 23.3125 8.43747 20.6875 8.24997H20.4375V5.56247H20.6875C23.9375 5.74997 27.0625 6.99997 29.5 9.18747L29.6875 9.37497L27.875 11.25ZM20.9375 7.81247C23.5 7.99997 25.875 8.99997 27.8125 10.625L29 9.37497C26.75 7.43747 23.875 6.24997 20.875 6.06247L20.9375 7.81247Z" fill="white"/>
<path d="M12.0625 11.3125L10.1875 9.43747L10.375 9.24997C12.8125 7.06247 15.9375 5.74997 19.1875 5.56247H19.4375V8.24997H19.1875C16.5625 8.43747 14.1875 9.43747 12.25 11.1875L12.0625 11.3125ZM10.875 9.43747L12.125 10.625C14.0625 8.93747 16.4375 7.93747 19 7.74997V5.99997C15.9375 6.31247 13.125 7.49997 10.875 9.43747Z" fill="white"/>
<path d="M9.5 29.75L9.3125 29.5625C7.125 27.125 5.8125 24 5.625 20.75V20.5H8.3125V20.75C8.5 23.375 9.5 25.75 11.25 27.6875L11.375 27.875L9.5 29.75ZM6.125 21C6.375 24 7.5625 26.8125 9.5 29.0625L10.6875 27.8125C9 25.875 8 23.5 7.8125 20.9375L6.125 21Z" fill="white"/>
<path d="M5.625 19.5V19.25C5.8125 16 7.0625 12.875 9.25 10.4375L9.4375 10.25L11.3125 12.125L11.1875 12.3125C9.5 14.3125 8.5 16.6875 8.3125 19.3125V19.5625L5.625 19.5ZM9.4375 10.875C7.5 13.125 6.3125 16 6.125 19H7.875C8.0625 16.4375 9.0625 14.0625 10.6875 12.125L9.4375 10.875Z" fill="white"/>
<path d="M28.9375 12L30.5 10.4375C32.625 12.75 33.9375 15.75 34.125 19.0625H31.9375C31.75 16.375 30.625 13.9375 28.9375 12Z" fill="white"/>
<path d="M29 27.8124C30.6875 25.8749 31.75 23.3749 31.9375 20.6874H34.125C33.9375 23.9999 32.625 27.0624 30.5625 29.3749L29 27.8124Z" fill="white"/>
<path d="M21.5 21.4375C20.6875 22.25 19.375 22.25 18.5625 21.5C17.75 20.75 17.75 19.375 18.5 18.5625C19.3125 17.75 20.625 17.75 21.4375 18.5C22.25 19.3125 22.3125 20.625 21.5 21.4375Z" fill="white"/>
<path d="M19.6875 20.0625L28.1875 13.5L20.5 18L19.6875 20.0625Z" fill="white"/>
<path d="M19.6875 20.0625L28.1875 13.5L21.875 19.8125L19.6875 20.0625Z" fill="white"/>
</svg>
