<svg viewBox="0 0 18 18" fill="none" xmlns="http://www.w3.org/2000/svg">
<path d="M18 8.7105L11.6175 0L0 4.023L2.2665 11.5958C2.2665 11.5958 5.703 12.5017 5.79 12.5175C6.51675 12.6675 7.2405 13.1985 8.0025 13.734L6.6915 18H8.25L9.3165 14.5627C9.84525 14.8357 10.3987 15.0262 10.9913 15.0262C13.3095 15.0262 14.2095 12.9532 13.719 11.2387L18 8.7105ZM5.958 11.0055L3.4695 10.359L1.90425 4.977L11.07 1.82475L15.8655 8.25825L12.9847 9.93075C12.444 9.37275 11.6543 9 10.6132 9H10.6117C9.25275 9.02475 8.45175 9.6615 7.8075 10.173C7.236 10.6267 6.7725 10.9808 5.958 11.0055ZM10.6823 10.5C11.055 10.5 11.3565 10.5915 11.6017 10.734L8.739 12.3967L7.9875 11.901C8.991 11.2657 9.417 10.521 10.6823 10.5ZM11.0415 13.5225C10.7408 13.5225 10.4873 13.4535 10.1745 13.2968L12.3472 12.0353C12.3682 12.783 11.9085 13.5225 11.0415 13.5225Z" fill="currentColor"/>
</svg>
