<svg width="18" height="18" viewBox="0 0 18 18" fill="none" xmlns="http://www.w3.org/2000/svg">
  <path d="M11.25 2.25L14.25 2.25C15.0784 2.25 15.75 2.92157 15.75 3.75L15.75 14.25C15.75 15.0784 15.0784 15.75 14.25 15.75H11.25L11.25 2.25Z" fill="#007DA3" />
  <path d="M2.25 5.25V6.75H3.75V5.25H2.25Z" fill="#007DA3" />
  <path d="M2.25 8.25V9.75H3.75V8.25H2.25Z" fill="#007DA3" />
  <path d="M2.25 11.25V12.75H3.75V11.25H2.25Z" fill="#007DA3" />
  <path d="M3.75 15.75C2.92157 15.75 2.25 15.0784 2.25 14.25L3.75 14.25L3.75 15.75Z" fill="#007DA3" />
  <path d="M6.75 15.75L6.75 14.25L5.25 14.25L5.25 15.75L6.75 15.75Z" fill="#007DA3" />
  <path d="M9.75 15.75L9.75 14.25L8.25 14.25L8.25 15.75L9.75 15.75Z" fill="#007DA3" />
  <path d="M12.75 15.75L12.75 14.25L11.25 14.25L11.25 15.75L12.75 15.75Z" fill="#007DA3" />
  <path d="M14.25 15.75C15.0784 15.75 15.75 15.0784 15.75 14.25L14.25 14.25L14.25 15.75Z" fill="#007DA3" />
  <path d="M14.25 11.25V12.75H15.75V11.25H14.25Z" fill="#007DA3" />
  <path d="M14.25 8.25V9.75H15.75V8.25H14.25Z" fill="#007DA3" />
  <path d="M14.25 5.25V6.75H15.75V5.25H14.25Z" fill="#007DA3" />
  <path d="M14.25 2.25C15.0784 2.25 15.75 2.92157 15.75 3.75L14.25 3.75V2.25Z" fill="#007DA3" />
  <path d="M11.25 2.25V3.75H12.75V2.25H11.25Z" fill="#007DA3" />
  <path d="M8.25 2.25V3.75H9.75V2.25H8.25Z" fill="#007DA3" />
  <path d="M5.25 2.25V3.75H6.75V2.25H5.25Z" fill="#007DA3" />
  <path d="M3.75 2.25C2.92157 2.25 2.25 2.92157 2.25 3.75L3.75 3.75V2.25Z" fill="#007DA3" />
  <path d="M9 12.75L5.25 9L9 5.25L9 12.75Z" fill="#007DA3" />
</svg>
