<svg width="18" height="18" viewBox="0 0 18 18" fill="none" xmlns="http://www.w3.org/2000/svg">
  <path d="M11.25 2.25L14.25 2.25C15.0784 2.25 15.75 2.92157 15.75 3.75L15.75 14.25C15.75 15.0784 15.0784 15.75 14.25 15.75H11.25L11.25 2.25Z" fill="#007DA3" />
  <path fill-rule="evenodd" clip-rule="evenodd" d="M14.25 3.75L3.75 3.75L3.75 14.25L14.25 14.25L14.25 3.75ZM3.75 2.25C2.92157 2.25 2.25 2.92157 2.25 3.75L2.25 14.25C2.25 15.0784 2.92157 15.75 3.75 15.75L14.25 15.75C15.0784 15.75 15.75 15.0784 15.75 14.25L15.75 3.75C15.75 2.92157 15.0784 2.25 14.25 2.25L3.75 2.25Z" fill="#007DA3" />
  <path d="M6 12.75L9.75 9L6 5.25L6 12.75Z" fill="#007DA3" />
</svg>
